<?xml version="1.0" encoding="UTF-8" standalone="no"?>
<svg
   xmlns:dc="http://purl.org/dc/elements/1.1/"
   xmlns:cc="http://creativecommons.org/ns#"
   xmlns:rdf="http://www.w3.org/1999/02/22-rdf-syntax-ns#"
   xmlns:svg="http://www.w3.org/2000/svg"
   xmlns="http://www.w3.org/2000/svg"
   id="svg8"
   version="1.1"
   viewBox="0 0 230.26558 50.860474"
   height="50.860474mm"
   width="230.26558mm">
  <defs
     id="defs2" />
  <metadata
     id="metadata5">
    <rdf:RDF>
      <cc:Work
         rdf:about="">
        <dc:format>image/svg+xml</dc:format>
        <dc:type
           rdf:resource="http://purl.org/dc/dcmitype/StillImage" />
        <dc:title></dc:title>
      </cc:Work>
    </rdf:RDF>
  </metadata>
  <g
     transform="translate(38.076588,-21.83493)"
     id="layer1">
    <g
       aria-label="[TOGGEN]"
       id="text12"
       style="font-style:normal;font-variant:normal;font-weight:normal;font-stretch:normal;font-size:50.8px;line-height:1.25;font-family:'Share Tech';-inkscape-font-specification:'Share Tech, Normal';font-variant-ligatures:normal;font-variant-caps:normal;font-variant-numeric:normal;font-variant-east-asian:normal;fill:#2ea3f2;fill-opacity:1;stroke:none;stroke-width:0.264583">
      <path
         d="m 17.92514,71.107902 v -47.752 h 9.652 v 3.81 h -5.588 v 40.132 h 5.588 v 3.81 z"
         style="font-style:normal;font-variant:normal;font-weight:normal;font-stretch:normal;font-size:50.8px;font-family:'Share Tech';-inkscape-font-specification:'Share Tech, Normal';font-variant-ligatures:normal;font-variant-caps:normal;font-variant-numeric:normal;font-variant-east-asian:normal;fill:#2ea3f2;fill-opacity:1;stroke-width:0.264583"
         id="path9" />
      <path
         d="m 43.082252,33.312702 v 31.6992 h -4.419599 v -31.6992 h -7.8232 v -3.8608 h 20.065999 v 3.8608 z"
         style="font-style:normal;font-variant:normal;font-weight:normal;font-stretch:normal;font-size:50.8px;font-family:'Share Tech';-inkscape-font-specification:'Share Tech, Normal';font-variant-ligatures:normal;font-variant-caps:normal;font-variant-numeric:normal;font-variant-east-asian:normal;fill:#2ea3f2;fill-opacity:1;stroke-width:0.264583"
         id="path11" />
      <path
         d="m 74.540151,56.375902 q 0,4.318 -2.3876,6.5024 -2.3368,2.1336 -6.7564,2.1336 h -1.7272 q -4.4196,0 -6.8072,-2.1336 -2.3368,-2.1844 -2.3368,-6.5024 v -18.288 q 0,-4.318 2.3368,-6.4516 2.3876,-2.1844 6.8072,-2.1844 h 1.7272 q 4.4196,0 6.7564,2.1844 2.3876,2.1336 2.3876,6.4516 z m -4.4196,-19.2532 q 0,-1.5748 -1.1684,-2.6924 -1.1684,-1.1176 -3.048,-1.1176 h -2.7432 q -1.8796,0 -3.048,1.1176 -1.1684,1.1176 -1.1684,2.6924 v 20.2184 q 0,1.5748 1.1684,2.6924 1.1684,1.1176 3.048,1.1176 h 2.7432 q 1.8796,0 3.048,-1.1176 1.1684,-1.1176 1.1684,-2.6924 z"
         style="font-style:normal;font-variant:normal;font-weight:normal;font-stretch:normal;font-size:50.8px;font-family:'Share Tech';-inkscape-font-specification:'Share Tech, Normal';font-variant-ligatures:normal;font-variant-caps:normal;font-variant-numeric:normal;font-variant-east-asian:normal;fill:#2ea3f2;fill-opacity:1;stroke-width:0.264583"
         id="path13" />
      <path
         d="m 91.350981,65.011902 q -4.4196,0 -6.8072,-2.1336 -2.3368,-2.1844 -2.3368,-6.5024 v -18.288 q 0,-4.318 2.3368,-6.4516 2.3876,-2.1844 6.8072,-2.1844 h 6.858 v 3.8608 h -7.366 q -1.8796,0 -3.048,1.1176 -1.1684,1.1176 -1.1684,2.6924 v 20.2184 q 0,1.5748 1.1684,2.6924 1.1684,1.1176 3.048,1.1176 h 4.6736 v -11.0236 h -4.2672 v -3.81 h 8.4836 v 18.6944 z"
         style="font-style:normal;font-variant:normal;font-weight:normal;font-stretch:normal;font-size:50.8px;font-family:'Share Tech';-inkscape-font-specification:'Share Tech, Normal';font-variant-ligatures:normal;font-variant-caps:normal;font-variant-numeric:normal;font-variant-east-asian:normal;fill:#2ea3f2;fill-opacity:1;stroke-width:0.264583"
         id="path15" />
      <path
         d="m 116.25489,65.011902 q -4.4196,0 -6.8072,-2.1336 -2.3368,-2.1844 -2.3368,-6.5024 v -18.288 q 0,-4.318 2.3368,-6.4516 2.3876,-2.1844 6.8072,-2.1844 h 6.858 v 3.8608 h -7.366 q -1.8796,0 -3.048,1.1176 -1.1684,1.1176 -1.1684,2.6924 v 20.2184 q 0,1.5748 1.1684,2.6924 1.1684,1.1176 3.048,1.1176 h 4.6736 v -11.0236 h -4.2672 v -3.81 h 8.4836 v 18.6944 z"
         style="font-style:normal;font-variant:normal;font-weight:normal;font-stretch:normal;font-size:50.8px;font-family:'Share Tech';-inkscape-font-specification:'Share Tech, Normal';font-variant-ligatures:normal;font-variant-caps:normal;font-variant-numeric:normal;font-variant-east-asian:normal;fill:#2ea3f2;fill-opacity:1;stroke-width:0.264583"
         id="path17" />
      <path
         d="m 132.5228,65.011902 v -35.56 h 16.6624 v 3.7084 h -12.2428 v 11.6332 h 10.9728 v 3.7084 h -10.9728 v 12.8016 h 12.2428 v 3.7084 z"
         style="font-style:normal;font-variant:normal;font-weight:normal;font-stretch:normal;font-size:50.8px;font-family:'Share Tech';-inkscape-font-specification:'Share Tech, Normal';font-variant-ligatures:normal;font-variant-caps:normal;font-variant-numeric:normal;font-variant-east-asian:normal;fill:#2ea3f2;fill-opacity:1;stroke-width:0.264583"
         id="path19" />
      <path
         d="m 168.42094,65.011902 -7.7724,-31.8008 v 31.8008 h -4.1148 v -35.56 h 7.2136 l 7.8232,31.8008 v -31.8008 h 4.1148 v 35.56 z"
         style="font-style:normal;font-variant:normal;font-weight:normal;font-stretch:normal;font-size:50.8px;font-family:'Share Tech';-inkscape-font-specification:'Share Tech, Normal';font-variant-ligatures:normal;font-variant-caps:normal;font-variant-numeric:normal;font-variant-east-asian:normal;fill:#2ea3f2;fill-opacity:1;stroke-width:0.264583"
         id="path21" />
      <path
         d="m 182.53699,71.107902 v -3.81 h 5.588 v -40.132 h -5.588 v -3.81 h 9.652 v 47.752 z"
         style="font-style:normal;font-variant:normal;font-weight:normal;font-stretch:normal;font-size:50.8px;font-family:'Share Tech';-inkscape-font-specification:'Share Tech, Normal';font-variant-ligatures:normal;font-variant-caps:normal;font-variant-numeric:normal;font-variant-east-asian:normal;fill:#2ea3f2;fill-opacity:1;stroke-width:0.264583"
         id="path23" />
      <path
         style="fill:#2ea3f2;fill-opacity:1;stroke:#2ea3f2;stroke-width:0.0516765;stroke-opacity:1"
         d="m -10.850489,70.661124 -1.607267,-0.374611 -0.848014,-0.87657 c -1.596651,-1.650414 -1.543209,-1.585588 -2.259186,-2.740555 l -0.674983,-1.088837 -0.312997,-1.248778 -0.312996,-1.248778 -0.823367,-1.291844 c -0.452851,-0.710515 -0.911316,-1.460808 -1.018809,-1.667316 -0.107493,-0.206509 -0.442492,-0.770797 -0.744443,-1.253973 -0.429997,-0.688071 -0.64998,-1.113737 -1.014844,-1.963708 -0.416174,-0.969502 -0.491416,-1.1954 -0.705697,-2.118738 -0.264904,-1.141469 -0.586766,-3.05945 -0.755667,-4.503034 -0.101827,-0.870305 -0.105758,-1.033811 -0.05495,-2.285827 0.06698,-1.650444 0.04462,-1.778607 -0.45915,-2.632035 -0.309399,-0.524148 -0.3649,-0.85481 -0.368695,-2.196609 -0.0018,-0.630628 -0.03085,-1.321004 -0.0646,-1.53417 l -0.06135,-0.387574 -0.394701,-0.206706 c -0.533498,-0.279395 -2.178632,-1.798088 -3.526672,-3.255621 -0.552026,-0.596864 -1.418712,-1.51849 -1.925968,-2.048059 -0.809345,-0.844944 -1.04927,-1.139201 -1.959275,-2.402958 -0.947551,-1.3159 -1.129927,-1.606633 -2.114537,-3.370866 -0.912454,-1.634946 -1.159354,-2.125825 -1.611506,-3.203945 l -0.533959,-1.273186 0.02751,-0.59428 c 0.0618,-1.335006 0.0839,-1.548639 0.171268,-1.655258 0.171779,-0.209633 1.842572,-0.721862 2.354576,-0.721862 0.277189,0 1.384553,0.786184 2.169369,1.540165 2.133489,2.049667 2.869454,2.818329 4.215358,4.402635 1.062277,1.250441 1.666678,1.906345 2.607126,2.82929 0.673346,0.660814 1.263787,1.201802 1.31209,1.202195 0.0483,4.2e-4 0.578092,0.114835 1.177311,0.254312 0.913729,0.212684 1.247191,0.318376 2.067061,0.655161 l 0.977573,0.401566 1.125024,-0.14089 c 0.758671,-0.09501 1.515928,-0.231372 2.325444,-0.418746 1.085719,-0.251306 1.306583,-0.28537 2.311465,-0.356496 l 1.111045,-0.07864 1.4986207,0.233356 1.4986191,0.233356 2.1445748,-0.109235 2.1445753,-0.109234 1.5761339,-0.522949 1.57613387,-0.522948 1.25282026,-0.797065 C 1.970826,30.364296 3.6251064,29.115777 5.9755132,27.184121 L 7.1899119,26.18608 8.1962511,24.94382 9.2025916,23.701558 10.056606,23.230062 c 0.811577,-0.448067 0.874561,-0.473525 1.267429,-0.512301 0.227377,-0.02244 0.57433,-0.04227 0.771007,-0.04406 l 0.357598,-0.0032 0.712401,0.7059 c 0.49834,0.493791 0.722763,0.753072 0.746883,0.862889 0.0293,0.133396 -0.06088,0.343778 -0.600042,1.399919 -0.348988,0.683611 -1.052417,1.985118 -1.563176,2.892236 l -0.92865,1.649307 -1.0657627,1.295035 c -1.1374811,1.382184 -1.7220989,1.98611 -3.5070907,3.622919 -1.091177,1.000591 -1.1665812,1.082939 -2.3659616,2.583827 l -1.238864,1.550295 -0.7540542,0.258383 c -0.8246182,0.282563 -0.8084213,0.273501 -1.30611137,0.730735 l -0.34539927,0.317325 0.1539688,0.561176 c 0.084682,0.308648 0.23585607,0.802426 0.33594237,1.097285 0.47144977,1.388902 0.29692077,3.266443 -0.40891307,4.399002 -0.58200672,0.933871 -0.75338212,1.486096 -0.82591029,2.66134 -0.017542,0.284221 -0.069113,0.853955 -0.1146023,1.266074 -0.081042,0.734195 -0.089254,0.763906 -0.40705947,1.472782 -0.237313,0.529335 -0.3962348,0.993875 -0.5922386,1.731164 -0.1473379,0.554231 -0.4384499,1.542544 -0.6469147,2.196252 -0.3203345,1.004512 -0.3958064,1.312592 -0.4873917,1.989547 -0.179993,1.330434 -0.4887277,2.398445 -1.1353158,3.927415 l -0.5572634,1.317752 -0.091801,0.826825 c -0.079353,0.714686 -0.1370078,0.977511 -0.4251128,1.937869 l -0.333307,1.111046 -0.6749826,1.111045 c -0.3712407,0.611075 -0.7301487,1.185752 -0.7975737,1.27706 -0.1535157,0.207899 -2.1297888,1.558305 -2.3264775,1.589708 -0.07979,0.01276 -0.8683527,-0.145411 -1.7523484,-0.351441 z m 2.4450228,-1.274397 0.8315927,-0.567752 0.6779217,-1.115591 0.6779194,-1.115591 0.301941,-1.016756 c 0.2543536,-0.856509 0.3163106,-1.147069 0.3931096,-1.843581 0.06433,-0.583446 0.127572,-0.917692 0.214847,-1.135532 0.09541,-0.238148 0.159115,-0.616107 0.27872,-1.653649 0.08527,-0.739717 0.221726,-1.844912 0.30323,-2.455987 0.147929,-1.109101 0.1481133,-1.114028 0.1052763,-2.81637 -0.023602,-0.937929 -0.044269,-2.182662 -0.045929,-2.766074 l -0.003,-1.060749 0.3303612,-1.109665 c 0.267836,-0.899641 0.4367023,-1.344402 0.8922049,-2.349903 0.7105732,-1.568557 0.6269024,-1.529781 1.4369662,-0.665952 l 0.5666331,0.604242 0.08743,-0.434233 c 0.09676,-0.480568 0.42655597,-1.22934 0.79384057,-1.80234 0.14784017,-0.230646 0.28087637,-0.531924 0.37066597,-0.839422 0.1293111,-0.442847 0.14006742,-0.551026 0.14017722,-1.409828 l 1.038e-4,-0.930177 -0.19356602,-0.484838 c -0.1064602,-0.266659 -0.28817437,-0.841803 -0.40380817,-1.278098 -0.1821164,-0.687131 -0.2019681,-0.813238 -0.1483895,-0.942588 0.034021,-0.08213 0.36238957,-0.421313 0.72971327,-0.753738 L 0.60035443,38.838147 1.3175615,38.609535 2.0347687,38.380922 3.1826176,36.933839 4.3304677,35.486756 5.9503768,33.988594 C 6.8413364,33.164605 7.6738032,32.368023 7.8003122,32.218412 7.92682,32.068801 8.4713145,31.416209 9.0102996,30.768209 l 0.9799717,-1.178185 0.9319967,-1.664025 c 0.512599,-0.915214 1.145892,-2.080189 1.407317,-2.588834 l 0.47532,-0.924809 -0.352857,-0.358458 -0.352842,-0.358458 -0.43925,0.02287 c -0.433778,0.02258 -0.447762,0.02762 -1.122221,0.404766 L 9.8547643,24.504974 8.8709466,25.719373 7.8871288,26.933771 6.763384,27.856025 c -2.4405229,2.002931 -4.2202559,3.346163 -5.5955234,4.223156 l -1.31599296,0.839195 -1.67948674,0.56228 c -1.6616059,0.556292 -1.685973,0.562619 -2.2885712,0.594281 -0.3349962,0.0176 -0.6167235,0.04585 -0.6260615,0.06277 -0.0093,0.01693 0.0057,0.210233 0.03357,0.42957 0.07033,0.554892 -0.105746,2.012206 -0.371217,3.072428 l -0.196317,0.784044 0.463638,0.857939 0.4636407,0.857939 0.042773,0.885558 0.042767,0.885556 -0.7437797,1.296523 -0.743782,1.296523 -0.4218046,1.34359 -0.4218047,1.343588 0.07847,1.78284 c 0.0765,1.737879 0.07553,1.830411 -0.0383,3.669034 -0.113531,1.833751 -0.114644,1.936906 -0.04003,3.710157 0.04221,1.003178 0.06413,1.836574 0.04872,1.851988 -0.02824,0.02824 -1.0288484,-0.259405 -1.1730274,-0.337209 -0.04263,-0.023 -0.2067517,-0.327593 -0.3647067,-0.676859 l -0.28722,-0.635031 -0.7327774,-0.271242 -0.7327777,-0.271243 -0.8145457,0.313269 c -0.633046,0.243463 -0.988456,0.420654 -1.595001,0.795192 -0.42925,0.265057 -0.803467,0.481923 -0.831595,0.481923 -0.02813,0 -0.133507,-0.180222 -0.234176,-0.400494 -0.148253,-0.324392 -0.209335,-0.567421 -0.32146,-1.278994 -0.118002,-0.748865 -0.202377,-1.072952 -0.571796,-2.196252 l -0.433369,-1.317752 -0.07652,-1.085207 -0.07652,-1.085207 0.234216,-1.291913 0.234215,-1.291914 -0.270352,-1.317749 c -0.249407,-1.215662 -0.291748,-1.363155 -0.546519,-1.90378 -0.236813,-0.502515 -0.341784,-0.657193 -0.736628,-1.085441 l -0.460461,-0.499417 -0.34862,-1.084971 -0.348619,-1.084971 0.237282,-1.136884 c 0.178089,-0.853279 0.245927,-1.308656 0.27194,-1.825467 l 0.03466,-0.688583 0.381114,-0.908698 c 0.209613,-0.499783 0.374927,-0.914884 0.367367,-0.922445 -0.01922,-0.01922 -0.965178,0.522777 -1.038278,0.594895 -0.03289,0.03244 -0.176064,0.389561 -0.318174,0.793597 l -0.258383,0.73461 -0.775148,0.26768 c -0.426331,0.147225 -0.790723,0.269311 -0.809762,0.271302 -0.01904,0.002 -0.06956,-0.153346 -0.112279,-0.345195 -0.05787,-0.259923 -0.06696,-0.453926 -0.03567,-0.761262 l 0.04199,-0.412444 -0.485233,-0.630776 c -0.266877,-0.346927 -0.485233,-0.655307 -0.485233,-0.68529 0,-0.02998 0.110459,-0.20806 0.245464,-0.395728 0.135005,-0.187668 0.237358,-0.356439 0.22745,-0.375047 -0.05177,-0.09723 -0.83621,-0.336372 -1.894018,-0.577411 -0.653708,-0.148958 -1.24096,-0.297569 -1.305003,-0.330249 -0.06404,-0.03268 -0.6746,-0.601337 -1.356792,-1.263683 -1.005614,-0.976366 -1.502667,-1.51395 -2.626495,-2.840676 -1.192026,-1.407238 -1.6244,-1.870642 -3.087389,-3.308966 -1.377736,-1.354508 -1.802697,-1.740917 -2.234779,-2.032046 l -0.53354,-0.359488 -0.448315,0.104242 c -0.246572,0.05734 -0.541332,0.136819 -0.65502,0.176636 l -0.206707,0.07239 -0.03234,0.356792 c -0.08962,0.988823 -0.09243,0.974487 0.434801,2.222503 0.382406,0.905198 0.694064,1.519126 1.533111,3.020038 0.952725,1.704261 1.14922,2.016903 2.06093,3.279141 0.917996,1.270942 1.107166,1.499073 2.123003,2.560262 0.613365,0.640747 1.44077,1.520258 1.838679,1.954468 0.39791,0.434211 1.200188,1.231808 1.782841,1.772439 0.959101,0.889931 1.106854,1.006911 1.561074,1.235954 0.275937,0.139144 0.523592,0.293955 0.550341,0.344025 0.120318,0.225208 0.214079,1.236187 0.215869,2.327611 0.0021,1.25713 0.05059,1.573578 0.301174,1.964085 0.405623,0.63211 0.657297,1.483006 0.60317,2.039281 l -0.03394,0.348817 h 0.491657 0.491657 l 0.351215,-0.529684 c 0.230103,-0.347028 0.387839,-0.534924 0.457416,-0.544878 0.07463,-0.01067 0.282001,0.147929 0.697632,0.533584 0.902161,0.837097 0.823978,0.700281 0.823978,1.441912 v 0.636785 l 0.225038,0.40684 c 0.123771,0.223761 0.37957,0.645737 0.568442,0.937724 l 0.343403,0.530884 v 0.880075 c 0,0.926884 0.139435,3.597969 0.307561,5.891827 l 0.100022,1.364635 0.493842,1.248028 c 0.271613,0.686412 0.493842,1.29266 0.493842,1.347215 0,0.05455 -0.174409,0.344913 -0.387574,0.645239 -0.213166,0.300328 -0.387574,0.595966 -0.387574,0.656975 0,0.06101 0.128069,0.621648 0.284598,1.245862 l 0.284598,1.134932 0.650352,1.046675 0.650351,1.046672 1.041677,1.059369 1.041678,1.059369 1.240237,0.293573 c 0.682132,0.161465 1.2881324,0.295178 1.3466714,0.297139 0.05854,0.002 0.4806517,-0.251921 0.9380274,-0.564183 z m -1.5862861,-2.153266 c -0.3368227,-0.159407 -0.5818227,-0.319414 -0.7832147,-0.51151 -0.187811,-0.179141 -0.443228,-0.350346 -0.711169,-0.476693 l -0.418103,-0.197154 -0.212186,-0.436853 c -0.282782,-0.582199 -0.595631,-1.462206 -0.722819,-2.033205 l -0.103442,-0.464392 0.18018,-0.180182 c 0.174299,-0.174298 0.186761,-0.178206 0.381822,-0.119765 0.113104,0.03389 0.354298,0.195174 0.549301,0.367318 0.493917,0.436023 0.768756,0.520593 1.691829,0.520593 0.3912757,0 0.9470274,0.02563 1.2350011,0.05696 l 0.5235927,0.05696 0.288642,-0.198796 c 0.192289,-0.132435 0.3612947,-0.311017 0.5062797,-0.534969 0.3135097,-0.484265 0.3871897,-0.541069 0.6074947,-0.468362 l 0.1782597,0.05883 -0.02283,0.450093 c -0.03448,0.679863 -0.2446537,1.487149 -0.5957904,2.288498 l -0.307393,0.701519 -0.8134834,0.652936 c -0.4474157,0.359116 -0.8468587,0.663561 -0.8876527,0.676544 -0.04079,0.01298 -0.2947347,-0.08078 -0.5643167,-0.208368 z"
         id="path1456" />
    </g>
  </g>
</svg>
