<?xml version="1.0" encoding="UTF-8" standalone="no"?>
<svg
   xmlns:dc="http://purl.org/dc/elements/1.1/"
   xmlns:cc="http://creativecommons.org/ns#"
   xmlns:rdf="http://www.w3.org/1999/02/22-rdf-syntax-ns#"
   xmlns:svg="http://www.w3.org/2000/svg"
   xmlns="http://www.w3.org/2000/svg"
   id="svg8"
   version="1.1"
   viewBox="0 0 174.26384 47.751999"
   height="47.751999mm"
   width="174.26384mm">
  <defs
     id="defs2" />
  <metadata
     id="metadata5">
    <rdf:RDF>
      <cc:Work
         rdf:about="">
        <dc:format>image/svg+xml</dc:format>
        <dc:type
           rdf:resource="http://purl.org/dc/dcmitype/StillImage" />
        <dc:title></dc:title>
      </cc:Work>
    </rdf:RDF>
  </metadata>
  <g
     transform="translate(-17.92514,-23.355902)"
     id="layer1">
    <g
       aria-label="[TOGGEN]"
       id="text12"
       style="font-style:normal;font-variant:normal;font-weight:normal;font-stretch:normal;font-size:50.8px;line-height:1.25;font-family:'Share Tech';-inkscape-font-specification:'Share Tech, Normal';font-variant-ligatures:normal;font-variant-caps:normal;font-variant-numeric:normal;font-variant-east-asian:normal;fill:#2ea3f2;fill-opacity:1;stroke:none;stroke-width:0.264583">
      <path
         d="m 17.92514,71.107902 v -47.752 h 9.652 v 3.81 h -5.588 v 40.132 h 5.588 v 3.81 z"
         style="font-style:normal;font-variant:normal;font-weight:normal;font-stretch:normal;font-size:50.8px;font-family:'Share Tech';-inkscape-font-specification:'Share Tech, Normal';font-variant-ligatures:normal;font-variant-caps:normal;font-variant-numeric:normal;font-variant-east-asian:normal;fill:#2ea3f2;fill-opacity:1;stroke-width:0.264583"
         id="path9" />
      <path
         d="m 43.082252,33.312702 v 31.6992 h -4.419599 v -31.6992 h -7.8232 v -3.8608 h 20.065999 v 3.8608 z"
         style="font-style:normal;font-variant:normal;font-weight:normal;font-stretch:normal;font-size:50.8px;font-family:'Share Tech';-inkscape-font-specification:'Share Tech, Normal';font-variant-ligatures:normal;font-variant-caps:normal;font-variant-numeric:normal;font-variant-east-asian:normal;fill:#2ea3f2;fill-opacity:1;stroke-width:0.264583"
         id="path11" />
      <path
         d="m 74.540151,56.375902 q 0,4.318 -2.3876,6.5024 -2.3368,2.1336 -6.7564,2.1336 h -1.7272 q -4.4196,0 -6.8072,-2.1336 -2.3368,-2.1844 -2.3368,-6.5024 v -18.288 q 0,-4.318 2.3368,-6.4516 2.3876,-2.1844 6.8072,-2.1844 h 1.7272 q 4.4196,0 6.7564,2.1844 2.3876,2.1336 2.3876,6.4516 z m -4.4196,-19.2532 q 0,-1.5748 -1.1684,-2.6924 -1.1684,-1.1176 -3.048,-1.1176 h -2.7432 q -1.8796,0 -3.048,1.1176 -1.1684,1.1176 -1.1684,2.6924 v 20.2184 q 0,1.5748 1.1684,2.6924 1.1684,1.1176 3.048,1.1176 h 2.7432 q 1.8796,0 3.048,-1.1176 1.1684,-1.1176 1.1684,-2.6924 z"
         style="font-style:normal;font-variant:normal;font-weight:normal;font-stretch:normal;font-size:50.8px;font-family:'Share Tech';-inkscape-font-specification:'Share Tech, Normal';font-variant-ligatures:normal;font-variant-caps:normal;font-variant-numeric:normal;font-variant-east-asian:normal;fill:#2ea3f2;fill-opacity:1;stroke-width:0.264583"
         id="path13" />
      <path
         d="m 91.350981,65.011902 q -4.4196,0 -6.8072,-2.1336 -2.3368,-2.1844 -2.3368,-6.5024 v -18.288 q 0,-4.318 2.3368,-6.4516 2.3876,-2.1844 6.8072,-2.1844 h 6.858 v 3.8608 h -7.366 q -1.8796,0 -3.048,1.1176 -1.1684,1.1176 -1.1684,2.6924 v 20.2184 q 0,1.5748 1.1684,2.6924 1.1684,1.1176 3.048,1.1176 h 4.6736 v -11.0236 h -4.2672 v -3.81 h 8.4836 v 18.6944 z"
         style="font-style:normal;font-variant:normal;font-weight:normal;font-stretch:normal;font-size:50.8px;font-family:'Share Tech';-inkscape-font-specification:'Share Tech, Normal';font-variant-ligatures:normal;font-variant-caps:normal;font-variant-numeric:normal;font-variant-east-asian:normal;fill:#2ea3f2;fill-opacity:1;stroke-width:0.264583"
         id="path15" />
      <path
         d="m 116.25489,65.011902 q -4.4196,0 -6.8072,-2.1336 -2.3368,-2.1844 -2.3368,-6.5024 v -18.288 q 0,-4.318 2.3368,-6.4516 2.3876,-2.1844 6.8072,-2.1844 h 6.858 v 3.8608 h -7.366 q -1.8796,0 -3.048,1.1176 -1.1684,1.1176 -1.1684,2.6924 v 20.2184 q 0,1.5748 1.1684,2.6924 1.1684,1.1176 3.048,1.1176 h 4.6736 v -11.0236 h -4.2672 v -3.81 h 8.4836 v 18.6944 z"
         style="font-style:normal;font-variant:normal;font-weight:normal;font-stretch:normal;font-size:50.8px;font-family:'Share Tech';-inkscape-font-specification:'Share Tech, Normal';font-variant-ligatures:normal;font-variant-caps:normal;font-variant-numeric:normal;font-variant-east-asian:normal;fill:#2ea3f2;fill-opacity:1;stroke-width:0.264583"
         id="path17" />
      <path
         d="m 132.5228,65.011902 v -35.56 h 16.6624 v 3.7084 h -12.2428 v 11.6332 h 10.9728 v 3.7084 h -10.9728 v 12.8016 h 12.2428 v 3.7084 z"
         style="font-style:normal;font-variant:normal;font-weight:normal;font-stretch:normal;font-size:50.8px;font-family:'Share Tech';-inkscape-font-specification:'Share Tech, Normal';font-variant-ligatures:normal;font-variant-caps:normal;font-variant-numeric:normal;font-variant-east-asian:normal;fill:#2ea3f2;fill-opacity:1;stroke-width:0.264583"
         id="path19" />
      <path
         d="m 168.42094,65.011902 -7.7724,-31.8008 v 31.8008 h -4.1148 v -35.56 h 7.2136 l 7.8232,31.8008 v -31.8008 h 4.1148 v 35.56 z"
         style="font-style:normal;font-variant:normal;font-weight:normal;font-stretch:normal;font-size:50.8px;font-family:'Share Tech';-inkscape-font-specification:'Share Tech, Normal';font-variant-ligatures:normal;font-variant-caps:normal;font-variant-numeric:normal;font-variant-east-asian:normal;fill:#2ea3f2;fill-opacity:1;stroke-width:0.264583"
         id="path21" />
      <path
         d="m 182.53699,71.107902 v -3.81 h 5.588 v -40.132 h -5.588 v -3.81 h 9.652 v 47.752 z"
         style="font-style:normal;font-variant:normal;font-weight:normal;font-stretch:normal;font-size:50.8px;font-family:'Share Tech';-inkscape-font-specification:'Share Tech, Normal';font-variant-ligatures:normal;font-variant-caps:normal;font-variant-numeric:normal;font-variant-east-asian:normal;fill:#2ea3f2;fill-opacity:1;stroke-width:0.264583"
         id="path23" />
    </g>
  </g>
</svg>
